<svg xmlns:xlink="http://www.w3.org/1999/xlink" xmlns:dc="http://purl.org/dc/elements/1.1/" xmlns:cc="http://creativecommons.org/ns#" xmlns:rdf="http://www.w3.org/1999/02/22-rdf-syntax-ns#" xmlns:svg="http://www.w3.org/2000/svg" xmlns="http://www.w3.org/2000/svg" xmlns:sodipodi="http://sodipodi.sourceforge.net/DTD/sodipodi-0.dtd" xmlns:inkscape="http://www.inkscape.org/namespaces/inkscape" version="1.1" id="Layer_1" x="0px" y="0px" viewBox="0 0 187.24 41.43679" xml:space="preserve" sodipodi:docname="logo.svg" width="187.24001" height="41.43679" inkscape:version="0.92.4 5da689c313, 2019-01-14"><metadata id="metadata33"><rdf:RDF><cc:Work rdf:about=""><dc:format>image/svg+xml</dc:format><dc:type rdf:resource="http://purl.org/dc/dcmitype/StillImage"/><dc:title/></cc:Work></rdf:RDF></metadata><defs id="defs31"/><sodipodi:namedview pagecolor="#ffffff" bordercolor="#666666" borderopacity="1" objecttolerance="10" gridtolerance="10" guidetolerance="10" inkscape:pageopacity="0" inkscape:pageshadow="2" inkscape:window-width="1920" inkscape:window-height="1019" id="namedview29" showgrid="false" fit-margin-top="0" fit-margin-left="0" fit-margin-right="0" fit-margin-bottom="0" inkscape:zoom="4.4967524" inkscape:cx="61.541054" inkscape:cy="-9.3115595" inkscape:window-x="0" inkscape:window-y="32" inkscape:window-maximized="1" inkscape:current-layer="Layer_1"/>
<style type="text/css" id="style2">
	.st0{fill:#181717;}
</style>
<g id="g26" transform="translate(-0.1,-7.4432085)">
	<path d="m 41.16,45.59 c 0,0.48 0.23,0.82 0.68,1.02 0.45,0.2 1.07,0.3 1.85,0.3 h 4.91 c 0.87,0 1.62,-0.11 2.25,-0.32 0.63,-0.21 1.17,-0.52 1.62,-0.91 0.45,-0.4 0.85,-0.89 1.2,-1.47 0.34,-0.58 0.65,-1.24 0.92,-1.98 0.09,-0.23 0.27,-0.34 0.54,-0.34 0.15,0 0.31,0.04 0.47,0.11 0.16,0.07 0.34,0.15 0.52,0.24 -0.21,0.85 -0.41,1.75 -0.61,2.7 -0.2,0.95 -0.37,2.02 -0.52,3.21 -0.03,0.31 -0.12,0.51 -0.27,0.6 -0.15,0.09 -0.33,0.13 -0.54,0.13 -0.51,0 -1.15,-0.04 -1.92,-0.11 -0.77,-0.07 -1.44,-0.11 -2.01,-0.11 H 39 c -0.69,0 -1.56,0.02 -2.61,0.06 -1.05,0.04 -2.06,0.09 -3.02,0.15 -0.06,-0.28 -0.09,-0.51 -0.09,-0.68 0,-0.4 0.15,-0.62 0.45,-0.68 1.23,-0.2 2.07,-0.42 2.52,-0.66 0.45,-0.24 0.68,-0.62 0.68,-1.13 v -21.7 c 0,-0.57 -0.21,-0.97 -0.63,-1.21 -0.42,-0.24 -1.23,-0.45 -2.43,-0.62 -0.15,-0.03 -0.26,-0.11 -0.34,-0.24 -0.08,-0.13 -0.11,-0.28 -0.11,-0.45 0,-0.2 0.03,-0.44 0.09,-0.72 1.02,0.06 2.03,0.1 3.02,0.15 0.99,0.04 1.83,0.06 2.52,0.06 1.02,0 2.1,-0.02 3.24,-0.06 1.14,-0.04 2.16,-0.09 3.07,-0.15 0.06,0.28 0.09,0.51 0.09,0.68 0,0.48 -0.16,0.74 -0.5,0.77 -1.29,0.14 -2.25,0.35 -2.86,0.62 -0.62,0.27 -0.92,0.76 -0.92,1.47 v 21.27 z" id="path4" inkscape:connector-curvature="0"/>
	<path d="m 117.93,41.66 v -17.6 c 0,-0.62 -0.24,-1.05 -0.72,-1.31 -0.48,-0.25 -1.29,-0.45 -2.44,-0.59 -0.33,-0.03 -0.49,-0.27 -0.49,-0.72 0,-0.17 0.03,-0.39 0.09,-0.67 0.75,0.06 1.52,0.1 2.3,0.15 0.78,0.04 1.52,0.06 2.21,0.06 0.66,0 1.35,-0.02 2.07,-0.06 0.72,-0.04 1.43,-0.09 2.12,-0.15 0.06,0.28 0.09,0.5 0.09,0.67 0,0.45 -0.15,0.69 -0.45,0.72 -1.02,0.14 -1.72,0.34 -2.1,0.59 -0.38,0.25 -0.56,0.66 -0.56,1.22 v 24.8 c -0.06,0.03 -0.16,0.05 -0.32,0.06 -0.15,0.02 -0.27,0.02 -0.36,0.02 -0.21,0 -0.4,-0.05 -0.59,-0.15 -0.18,-0.1 -0.39,-0.3 -0.63,-0.61 L 99.85,25.57 V 45.4 c 0,0.56 0.21,0.95 0.63,1.18 0.42,0.23 1.23,0.44 2.44,0.63 0.3,0.06 0.45,0.28 0.45,0.67 0,0.17 -0.03,0.39 -0.09,0.67 -0.75,-0.06 -1.51,-0.11 -2.28,-0.15 -0.77,-0.04 -1.48,-0.06 -2.14,-0.06 -0.6,0 -1.31,0.02 -2.12,0.06 -0.81,0.04 -1.55,0.09 -2.21,0.15 -0.06,-0.28 -0.09,-0.51 -0.09,-0.67 0,-0.39 0.16,-0.62 0.49,-0.67 1.08,-0.2 1.81,-0.41 2.19,-0.63 0.38,-0.22 0.56,-0.62 0.56,-1.18 V 23.77 c 0,-0.45 -0.17,-0.79 -0.52,-1.03 -0.35,-0.24 -1.06,-0.43 -2.14,-0.57 -0.33,-0.06 -0.5,-0.29 -0.5,-0.72 0,-0.14 0.01,-0.27 0.04,-0.38 0,-0.09 0.01,-0.18 0.04,-0.29 0.6,0.06 1.17,0.1 1.71,0.13 0.48,0.03 0.99,0.05 1.53,0.06 0.54,0.01 1.02,0.02 1.44,0.02 0.87,0 1.45,0.03 1.74,0.09 0.28,0.06 0.52,0.2 0.7,0.42 z" id="path6" inkscape:connector-curvature="0"/>
	<path d="m 143.49,48.86 c -2.52,0 -4.73,-0.36 -6.63,-1.08 -1.89,-0.72 -3.46,-1.71 -4.71,-2.98 -1.25,-1.26 -2.18,-2.75 -2.79,-4.46 -0.62,-1.71 -0.92,-3.55 -0.92,-5.52 0,-1.64 0.31,-3.29 0.92,-4.96 0.61,-1.67 1.55,-3.17 2.79,-4.52 1.25,-1.35 2.82,-2.44 4.71,-3.29 1.89,-0.85 4.1,-1.27 6.63,-1.27 0.99,0 1.9,0.02 2.73,0.06 0.83,0.04 1.61,0.11 2.37,0.21 0.75,0.1 1.49,0.22 2.21,0.37 0.72,0.15 1.47,0.33 2.25,0.52 0.03,0.75 0.13,1.67 0.32,2.75 0.18,1.08 0.42,2.18 0.72,3.29 -0.24,0.11 -0.48,0.17 -0.72,0.17 -0.24,0 -0.46,-0.03 -0.65,-0.08 -0.2,-0.06 -0.32,-0.21 -0.38,-0.46 -0.54,-1.83 -1.4,-3.14 -2.57,-3.92 -1.17,-0.78 -2.87,-1.17 -5.09,-1.17 -1.86,0 -3.51,0.28 -4.94,0.83 -1.43,0.56 -2.63,1.33 -3.61,2.33 -0.98,1 -1.71,2.2 -2.21,3.6 -0.49,1.4 -0.74,2.96 -0.74,4.69 0,1.92 0.32,3.68 0.95,5.29 0.63,1.61 1.48,3 2.55,4.17 1.07,1.17 2.31,2.07 3.74,2.71 1.43,0.64 2.95,0.96 4.57,0.96 1.29,0 2.38,-0.12 3.27,-0.35 0.89,-0.24 1.62,-0.58 2.21,-1.02 0.59,-0.44 1.08,-0.99 1.49,-1.64 0.41,-0.65 0.79,-1.4 1.15,-2.23 0.21,-0.42 0.57,-0.62 1.08,-0.62 0.15,0 0.31,0.02 0.47,0.06 0.16,0.04 0.29,0.09 0.38,0.15 -0.36,0.97 -0.72,2.04 -1.08,3.21 -0.36,1.17 -0.66,2.33 -0.9,3.5 -1.47,0.22 -2.98,0.4 -4.51,0.52 -1.54,0.12 -3.23,0.18 -5.06,0.18 z" id="path8" inkscape:connector-curvature="0"/>
	<g id="g12">
		<path d="m 66.36,45.41 c 2.16,-4.47 3.67,-7.25 7.99,-7.25 4.38,0.01 5.65,2.91 7.74,7.42 v 0 c 0.12,0.25 0.18,0.46 0.18,0.63 0,0.36 -0.24,0.64 -0.72,0.82 -0.48,0.18 -1.11,0.34 -1.89,0.48 -0.09,0 -0.19,0.05 -0.29,0.15 -0.11,0.1 -0.16,0.27 -0.16,0.53 0,0.17 0.03,0.39 0.09,0.67 0.87,-0.06 1.84,-0.11 2.92,-0.15 1.08,-0.04 2.04,-0.06 2.88,-0.06 0.81,0 1.68,0.02 2.61,0.06 0.93,0.04 1.87,0.09 2.83,0.15 0.06,-0.28 0.09,-0.51 0.09,-0.67 0,-0.25 -0.05,-0.43 -0.16,-0.53 -0.11,-0.1 -0.25,-0.17 -0.43,-0.23 -0.6,-0.08 -1.21,-0.24 -1.84,-0.46 -0.63,-0.22 -1.03,-0.53 -1.21,-0.93 L 76.11,20.87 c -0.24,-0.06 -0.42,-0.08 -0.54,-0.08 -0.36,0 -0.64,0.24 -0.85,0.72 l -10.83,24.4 c -0.21,0.45 -0.55,0.78 -1.01,0.99 -0.46,0.21 -1.16,0.39 -2.09,0.53 -0.24,0.03 -0.4,0.11 -0.47,0.25 -0.08,0.14 -0.11,0.31 -0.11,0.51 0,0.22 0.03,0.45 0.09,0.67 0.69,-0.08 1.35,-0.14 1.98,-0.17 0.63,-0.03 1.24,-0.04 1.84,-0.04 0.87,0 1.75,0.02 2.65,0.06 0.9,0.04 1.75,0.09 2.56,0.15 0.06,-0.28 0.09,-0.51 0.09,-0.67 0,-0.17 -0.04,-0.32 -0.11,-0.44 -0.08,-0.13 -0.22,-0.2 -0.43,-0.23 -1.83,-0.25 -2.74,-0.67 -2.74,-1.26 0,-0.23 0.07,-0.51 0.22,-0.85 m 12.06,-8.5 c -0.95,-0.73 -2.39,-1.2 -4.09,-1.2 -1.7,0 -3.26,0.47 -4.21,1.2 H 70 l 4.36,-10.31 4.18,10.31 z" id="path10" inkscape:connector-curvature="0"/>
	</g>
	<g id="g16">
		<path class="st0" d="m 5.38,33.29 c 0.06,3.64 0.41,5.75 1.34,7.92 1.69,3.91 4.54,5.81 8.73,5.81 4.13,0 7.27,-1.95 9.6,-5.96 l 1.34,0.69 C 23.77,46.61 19.82,48.87 14.12,48.87 5.8,48.87 0.1,43.28 0.1,35.2 c 0,-8.55 5.58,-14.41 13.79,-14.41 5.29,0 9.31,2.43 11.11,6.7 0.58,1.42 0.81,2.69 0.93,5.81 H 5.38 Z m 15.48,-1.42 c -0.06,-2.8 -0.35,-4.33 -1.11,-5.86 -1.28,-2.59 -3.26,-3.91 -5.99,-3.91 -2.79,0 -5.12,1.42 -6.69,4.12 -0.87,1.53 -1.22,2.9 -1.57,5.65 z" id="path14" inkscape:connector-curvature="0" style="fill:#181717"/>
	</g>
	<g id="g20">
		<path class="st0" d="m 21.68,8.3 -9.06,8.95 c -0.2,0.15 -0.24,0.43 -0.1,0.63 0.14,0.2 0.41,0.25 0.61,0.1 l 11.03,-6.16 c 0.18,-0.07 0.35,-0.16 0.51,-0.28 0.98,-0.73 1.2,-2.15 0.49,-3.16 C 24.45,7.37 23.09,7.14 22.11,7.87 21.94,8 21.8,8.14 21.68,8.3 Z" id="path18" inkscape:connector-curvature="0" style="fill:#181717"/>
	</g>
	<g id="g24">
		<path class="st0" d="m 166.33,33.29 c 0.06,3.64 0.41,5.75 1.34,7.92 1.69,3.91 4.54,5.81 8.73,5.81 4.13,0 7.27,-1.95 9.6,-5.96 l 1.34,0.69 c -2.62,4.86 -6.57,7.12 -12.27,7.12 -8.32,0 -14.02,-5.59 -14.02,-13.67 0,-8.55 5.58,-14.41 13.79,-14.41 5.29,0 9.31,2.43 11.11,6.7 0.58,1.42 0.81,2.69 0.93,5.81 h -20.55 z m 15.47,-1.42 c -0.06,-2.8 -0.35,-4.33 -1.11,-5.86 -1.28,-2.59 -3.26,-3.91 -5.99,-3.91 -2.79,0 -5.12,1.42 -6.69,4.12 -0.87,1.53 -1.22,2.9 -1.57,5.65 z" id="path22" inkscape:connector-curvature="0" style="fill:#181717"/>
	</g>
</g>
</svg>